# Blender 3.3.1
# www.blender.org
mtllib Break.mtl
o Cube
v -0.942973 -0.888940 1.140225
v -0.661131 0.947418 0.866238
v -0.957812 -0.789531 -0.774330
v -0.291870 0.224044 -0.199518
v 0.995899 -0.828077 1.096358
v 0.749782 0.918408 0.817879
v 1.153508 -0.728623 -0.758846
v 0.993687 1.024687 -0.961142
v -1.000000 -1.000000 0.000000
v -0.948483 0.855298 0.306633
v 1.000000 -1.000000 0.000000
v 1.163480 0.997597 0.032975
v 0.000000 -1.000000 -1.000000
v 0.541847 0.922260 -0.602491
v 0.211339 -0.937580 1.273081
v -0.029136 0.983456 0.867806
v 0.000000 1.000000 0.000000
v 0.073238 -1.200458 0.065995
v -1.000000 0.000000 1.000000
v -0.923483 -0.102524 -0.740312
v 1.306701 0.063192 -0.883886
v 1.000000 0.000000 1.000000
v 1.334475 0.071256 0.061208
v -0.960462 0.009568 0.255287
v 0.011245 -0.038628 1.075685
v 0.168164 0.077239 -0.756992
vn -0.2735 0.9308 -0.2427
vn -0.2942 0.0507 -0.9544
vn 0.8808 0.2472 0.4039
vn -0.0459 0.1775 0.9831
vn 0.1990 -0.9650 0.1706
vn -0.1195 0.9924 -0.0309
vn -0.4550 0.2188 -0.8632
vn 0.2337 -0.9438 -0.2337
vn 0.9655 0.2422 -0.0960
vn -0.9654 0.1968 0.1710
vn -0.2097 -0.9550 -0.2097
vn -0.0714 0.9963 -0.0482
vn 0.0352 0.9971 0.0672
vn -0.1242 -0.9782 0.1662
vn 0.0724 0.2069 0.9757
vn -0.6508 0.4072 -0.6409
vn -0.1133 0.1668 -0.9795
vn 0.1239 0.1800 0.9758
vn -0.9999 -0.0098 0.0098
vn 0.9672 -0.2521 0.0324
vn -0.0875 0.1727 0.9811
vn 0.9707 -0.1699 0.1699
vn 0.0435 0.0555 -0.9975
vn -0.9978 0.0506 -0.0418
vt 0.125000 0.750000
vt 0.375000 0.000000
vt 0.375000 1.000000
vt 0.625000 1.000000
vt 0.875000 0.750000
vt 0.625000 0.000000
vt 0.125000 0.500000
vt 0.375000 0.250000
vt 0.000000 0.000000
vt 0.375000 0.750000
vt 0.625000 0.750000
vt 0.375000 0.500000
vt 0.625000 0.500000
vt 0.125000 0.625000
vt 0.375000 0.125000
vt 0.875000 0.625000
vt 0.625000 0.125000
vt 0.375000 0.625000
vt 0.625000 0.625000
vt 0.250000 0.500000
vt 0.375000 0.375000
vt 0.625000 0.375000
vt 0.750000 0.500000
vt 0.250000 0.750000
vt 0.375000 0.875000
vt 0.750000 0.750000
vt 0.625000 0.875000
vt 0.750000 0.625000
vt 0.250000 0.625000
vt 0.500000 0.000000
vt 0.500000 1.000000
vt 0.500000 0.250000
vt 0.500000 0.500000
vt 0.500000 0.750000
vt 0.500000 0.625000
vt 0.500000 0.125000
vt 0.500000 0.875000
vt 0.500000 0.375000
s 0
f 4/9/1 26/38/1 20/32/1 24/36/1
f 26/38/2 14/22/2 8/13/2 21/33/2
f 23/35/3 12/19/3 6/11/3 22/34/3
f 25/37/4 16/27/4 2/4/4 19/31/4
f 18/29/5 11/18/5 5/10/5 15/24/5
f 17/28/6 10/16/6 2/5/6 16/26/6
f 4/9/7 24/36/7 10/16/7 17/28/7
f 13/20/8 7/12/8 11/18/8 18/29/8
f 21/33/9 8/13/9 12/19/9 23/35/9
f 19/30/10 2/6/10 10/17/10 24/36/10
f 3/7/11 13/20/11 18/29/11 9/14/11
f 8/13/12 14/23/12 17/28/12 12/19/12
f 12/19/13 17/28/13 16/26/13 6/11/13
f 9/14/14 18/29/14 15/24/14 1/1/14
f 22/34/15 6/11/15 16/27/15 25/37/15
f 4/9/16 17/28/16 14/23/16 26/38/16
f 3/8/17 20/32/17 26/38/17 13/21/17
f 5/10/18 22/34/18 25/37/18 15/25/18
f 1/2/19 19/30/19 24/36/19 9/15/19
f 7/12/20 21/33/20 23/35/20 11/18/20
f 15/25/21 25/37/21 19/31/21 1/3/21
f 11/18/22 23/35/22 22/34/22 5/10/22
f 13/21/23 26/38/23 21/33/23 7/12/23
f 9/15/24 24/36/24 20/32/24 3/8/24
