# Blender 3.3.1
# www.blender.org
o Cube
v -0.915104 -1.000000 -0.915104
v -1.000000 -0.915104 -0.915104
v -0.915104 -0.915104 -1.000000
v -0.975134 -0.975134 -0.915104
v -0.964119 -0.964119 -0.964119
v -0.975134 -0.915104 -0.975134
v -0.915104 -0.975134 -0.975134
v -1.000000 0.915104 -0.915104
v -0.915104 1.000000 -0.915104
v -0.915104 0.915104 -1.000000
v -0.975134 0.975134 -0.915104
v -0.964119 0.964119 -0.964119
v -0.915104 0.975134 -0.975134
v -0.975134 0.915104 -0.975134
v 0.915104 -1.000000 -0.915104
v 0.915104 -0.915104 -1.000000
v 1.000000 -0.915104 -0.915104
v 0.915104 -0.975134 -0.975134
v 0.964119 -0.964119 -0.964119
v 0.975134 -0.915104 -0.975134
v 0.975134 -0.975134 -0.915104
v 0.915104 1.000000 -0.915104
v 1.000000 0.915104 -0.915104
v 0.915104 0.915104 -1.000000
v 0.975134 0.975134 -0.915104
v 0.964119 0.964119 -0.964119
v 0.975134 0.915104 -0.975134
v 0.915104 0.975134 -0.975134
v -0.915104 -1.000000 0.915104
v -0.915104 -0.915104 1.000000
v -1.000000 -0.915104 0.915104
v -0.915104 -0.975134 0.975134
v -0.964119 -0.964119 0.964119
v -0.975134 -0.915104 0.975134
v -0.975134 -0.975134 0.915104
v -0.915104 1.000000 0.915104
v -1.000000 0.915104 0.915104
v -0.915104 0.915104 1.000000
v -0.975134 0.975134 0.915104
v -0.964119 0.964119 0.964119
v -0.975134 0.915104 0.975134
v -0.915104 0.975134 0.975134
v 0.915104 -1.000000 0.915104
v 1.000000 -0.915104 0.915104
v 0.915104 -0.915104 1.000000
v 0.975134 -0.975134 0.915104
v 0.964119 -0.964119 0.964119
v 0.975134 -0.915104 0.975134
v 0.915104 -0.975134 0.975134
v 0.915104 1.000000 0.915104
v 0.915104 0.915104 1.000000
v 1.000000 0.915104 0.915104
v 0.915104 0.975134 0.975134
v 0.964119 0.964119 0.964119
v 0.975134 0.915104 0.975134
v 0.975134 0.975134 0.915104
vn -0.9673 -0.1794 0.1794
vn -0.9673 0.1794 0.1794
vn -0.9673 0.1794 -0.1794
vn -0.9673 -0.1794 -0.1794
vn 0.1794 -0.1794 0.9673
vn 0.1794 0.1794 0.9673
vn -0.1794 0.1794 0.9673
vn -0.1794 -0.1794 0.9673
vn 0.1794 0.9673 0.1794
vn 0.1794 0.9673 -0.1794
vn -0.1794 0.9673 -0.1794
vn -0.1794 0.9673 0.1794
vn -0.1794 -0.1794 -0.9673
vn -0.1794 0.1794 -0.9673
vn 0.1794 0.1794 -0.9673
vn 0.1794 -0.1794 -0.9673
vn 0.9673 -0.1794 -0.1794
vn 0.9673 0.1794 -0.1794
vn 0.9673 0.1794 0.1794
vn 0.9673 -0.1794 0.1794
vn -0.1794 -0.9673 -0.1794
vn -0.6965 -0.6965 -0.1726
vn -0.5774 -0.5774 -0.5774
vn -0.1726 -0.6965 -0.6965
vn -0.6965 -0.1726 -0.6965
vn -0.6965 0.6965 -0.1726
vn -0.5774 0.5774 -0.5774
vn -0.6965 0.1726 -0.6965
vn -0.1726 0.6965 -0.6965
vn 0.1794 -0.9673 -0.1794
vn 0.1726 -0.6965 -0.6965
vn 0.5774 -0.5774 -0.5774
vn 0.6965 -0.6965 -0.1726
vn 0.6965 -0.1726 -0.6965
vn 0.6965 0.6965 -0.1726
vn 0.5774 0.5774 -0.5774
vn 0.1726 0.6965 -0.6965
vn 0.6965 0.1726 -0.6965
vn -0.1794 -0.9673 0.1794
vn -0.1726 -0.6965 0.6965
vn -0.5774 -0.5774 0.5774
vn -0.6965 -0.6965 0.1726
vn -0.6965 -0.1726 0.6965
vn -0.6965 0.6965 0.1726
vn -0.5774 0.5774 0.5774
vn -0.1726 0.6965 0.6965
vn -0.6965 0.1726 0.6965
vn 0.1794 -0.9673 0.1794
vn 0.6965 -0.6965 0.1726
vn 0.5774 -0.5774 0.5774
vn 0.1726 -0.6965 0.6965
vn 0.6965 -0.1726 0.6965
vn 0.1726 0.6965 0.6965
vn 0.5774 0.5774 0.5774
vn 0.6965 0.6965 0.1726
vn 0.6965 0.1726 0.6965
vt 0.135612 0.739388
vt 0.385612 0.989388
vt 0.385612 0.010612
vt 0.135612 0.750000
vt 0.375000 0.989388
vt 0.129485 0.750000
vt 0.379485 1.000000
vt 0.375000 0.004485
vt 0.385612 1.000000
vt 0.385612 0.000000
vt 0.125000 0.739388
vt 0.375000 0.010612
vt 0.614388 0.989388
vt 0.864388 0.739388
vt 0.614388 0.010612
vt 0.864388 0.750000
vt 0.625000 0.989388
vt 0.625000 0.995515
vt 0.875000 0.745515
vt 0.620515 0.000000
vt 0.875000 0.739388
vt 0.625000 0.010612
vt 0.614388 1.000000
vt 0.614388 0.000000
vt 0.135612 0.510612
vt 0.385612 0.239388
vt 0.385612 0.260612
vt 0.125000 0.510612
vt 0.375000 0.239388
vt 0.125000 0.504485
vt 0.379485 0.250000
vt 0.375000 0.254485
vt 0.385612 0.250000
vt 0.135612 0.500000
vt 0.375000 0.260612
vt 0.864388 0.510612
vt 0.614388 0.260612
vt 0.614388 0.239388
vt 0.864388 0.500000
vt 0.625000 0.260612
vt 0.870515 0.500000
vt 0.620515 0.250000
vt 0.625000 0.245515
vt 0.614388 0.250000
vt 0.875000 0.510612
vt 0.625000 0.239388
vt 0.364388 0.739388
vt 0.385612 0.739388
vt 0.385612 0.760612
vt 0.375000 0.739388
vt 0.376495 0.750000
vt 0.385612 0.750000
vt 0.364388 0.750000
vt 0.375000 0.760612
vt 0.635612 0.739388
vt 0.614388 0.760612
vt 0.614388 0.739388
vt 0.635612 0.750000
vt 0.625000 0.760612
vt 0.625000 0.748505
vt 0.614388 0.750000
vt 0.625000 0.739388
vt 0.364388 0.510612
vt 0.385612 0.489388
vt 0.385612 0.510612
vt 0.364388 0.500000
vt 0.375000 0.489388
vt 0.375000 0.501495
vt 0.385612 0.500000
vt 0.375000 0.510612
vt 0.635612 0.510612
vt 0.614388 0.510612
vt 0.614388 0.489388
vt 0.625000 0.510612
vt 0.623505 0.500000
vt 0.614388 0.500000
vt 0.635612 0.500000
vt 0.625000 0.489388
s 1
f 31/49/1 37/56/2 8/13/3 2/2/4
f 45/65/5 51/72/6 38/57/7 30/48/8
f 50/71/9 22/36/10 9/14/11 36/55/12
f 3/3/13 10/15/14 24/38/15 16/26/16
f 17/27/17 23/37/18 52/73/19 44/64/20
f 1/1/21 4/4/22 5/6/23 7/11/24
f 2/2/4 6/9/25 5/7/23 4/5/22
f 3/3/13 7/12/24 5/8/23 6/10/25
f 8/13/3 11/17/26 12/18/27 14/23/28
f 9/14/11 13/21/29 12/19/27 11/16/26
f 10/15/14 14/24/28 12/20/27 13/22/29
f 15/25/30 18/28/31 19/30/32 21/34/33
f 16/26/16 20/33/34 19/31/32 18/29/31
f 17/27/17 21/35/33 19/32/32 20/33/34
f 22/36/10 25/39/35 26/41/36 28/45/37
f 23/37/18 27/44/38 26/42/36 25/40/35
f 24/38/15 28/46/37 26/43/36 27/44/38
f 29/47/39 32/50/40 33/51/41 35/53/42
f 30/48/8 34/52/43 33/51/41 32/50/40
f 31/49/1 35/54/42 33/51/41 34/52/43
f 36/55/12 39/58/44 40/60/45 42/62/46
f 37/56/2 41/61/47 40/60/45 39/59/44
f 38/57/7 42/62/46 40/60/45 41/61/47
f 43/63/48 46/66/49 47/68/50 49/70/51
f 44/64/20 48/69/52 47/68/50 46/67/49
f 45/65/5 49/70/51 47/68/50 48/69/52
f 50/71/9 53/74/53 54/75/54 56/77/55
f 51/72/6 55/76/56 54/75/54 53/74/53
f 52/73/19 56/78/55 54/75/54 55/76/56
f 15/25/30 1/1/21 7/11/24 18/28/31
f 18/29/31 7/12/24 3/3/13 16/26/16
f 2/2/4 8/13/3 14/23/28 6/9/25
f 6/10/25 14/24/28 10/15/14 3/3/13
f 9/14/11 22/36/10 28/45/37 13/21/29
f 13/22/29 28/46/37 24/38/15 10/15/14
f 23/37/18 17/27/17 20/33/34 27/44/38
f 27/44/38 20/33/34 16/26/16 24/38/15
f 43/63/48 15/25/30 21/34/33 46/66/49
f 46/67/49 21/35/33 17/27/17 44/64/20
f 22/36/10 50/71/9 56/77/55 25/39/35
f 25/40/35 56/78/55 52/73/19 23/37/18
f 51/72/6 45/65/5 48/69/52 55/76/56
f 55/76/56 48/69/52 44/64/20 52/73/19
f 29/47/39 43/63/48 49/70/51 32/50/40
f 32/50/40 49/70/51 45/65/5 30/48/8
f 50/71/9 36/55/12 42/62/46 53/74/53
f 53/74/53 42/62/46 38/57/7 51/72/6
f 37/56/2 31/49/1 34/52/43 41/61/47
f 41/61/47 34/52/43 30/48/8 38/57/7
f 1/1/21 29/47/39 35/53/42 4/4/22
f 4/5/22 35/54/42 31/49/1 2/2/4
f 36/55/12 9/14/11 11/16/26 39/58/44
f 39/59/44 11/17/26 8/13/3 37/56/2
f 15/25/30 43/63/48 29/47/39 1/1/21
