# Blender 3.3.1
# www.blender.org
mtllib untitled.mtl
o Cube
v -0.439552 -0.530350 0.439554
v -0.439552 -0.439554 0.530350
v -0.530348 -0.439554 0.439554
v -0.439552 0.439554 0.530350
v -0.439552 0.530350 0.439554
v -0.530348 0.439554 0.439554
v -0.439552 -0.530350 -0.439554
v -0.530348 -0.439554 -0.439554
v -0.439552 -0.439554 -0.530350
v -0.439552 0.530350 -0.439554
v -0.439552 0.439554 -0.530350
v -0.530348 0.439554 -0.439554
v 0.439552 -0.530350 0.439554
v 0.530348 -0.439554 0.439554
v 0.439552 -0.439554 0.530350
v 0.439552 0.530350 0.439554
v 0.439552 0.439554 0.530350
v 0.530348 0.439554 0.439554
v 0.439552 -0.530350 -0.439554
v 0.439552 -0.439554 -0.530350
v 0.530348 -0.439554 -0.439554
v 0.439552 0.530350 -0.439554
v 0.530348 0.439554 -0.439554
v 0.439552 0.439554 -0.530350
v -0.439552 -0.513711 0.479723
v -0.439552 -0.479723 0.513711
v -0.439552 -0.499633 0.499633
v -0.471490 -0.503852 0.471491
v -0.471490 -0.471491 0.503852
v -0.503850 -0.471491 0.471491
v -0.472996 -0.491023 0.491023
v -0.486280 -0.486281 0.486281
v -0.491021 -0.472998 0.491023
v -0.491021 -0.491023 0.472997
v -0.479721 -0.439554 0.513711
v -0.513710 -0.439554 0.479723
v -0.499631 -0.439554 0.499633
v -0.513710 -0.479723 0.439554
v -0.479721 -0.513711 0.439554
v -0.499631 -0.499633 0.439554
v -0.439552 0.479723 0.513711
v -0.439552 0.513711 0.479723
v -0.439552 0.499633 0.499633
v -0.471490 0.471491 0.503852
v -0.471490 0.503852 0.471491
v -0.503850 0.471491 0.471491
v -0.472996 0.491023 0.491023
v -0.486280 0.486281 0.486281
v -0.491021 0.491023 0.472998
v -0.491021 0.472997 0.491023
v -0.479721 0.513711 0.439554
v -0.513710 0.479723 0.439554
v -0.499631 0.499633 0.439554
v -0.479721 0.439554 0.513711
v -0.513710 0.439554 0.479723
v -0.499631 0.439554 0.499633
v -0.479721 -0.513711 -0.439554
v -0.513710 -0.479723 -0.439554
v -0.499631 -0.499633 -0.439554
v -0.471490 -0.503852 -0.471491
v -0.503850 -0.471491 -0.471491
v -0.471490 -0.471491 -0.503852
v -0.491021 -0.491023 -0.472998
v -0.486280 -0.486281 -0.486281
v -0.491021 -0.472997 -0.491023
v -0.472996 -0.491023 -0.491023
v -0.479721 -0.439554 -0.513711
v -0.513710 -0.439554 -0.479723
v -0.499631 -0.439554 -0.499633
v -0.439552 -0.513711 -0.479723
v -0.439552 -0.479723 -0.513711
v -0.439552 -0.499633 -0.499633
v -0.439552 0.513711 -0.479723
v -0.439552 0.479723 -0.513711
v -0.439552 0.499633 -0.499633
v -0.471490 0.503852 -0.471491
v -0.471490 0.471491 -0.503852
v -0.503850 0.471491 -0.471491
v -0.472996 0.491023 -0.491023
v -0.486280 0.486281 -0.486281
v -0.491021 0.472998 -0.491023
v -0.491021 0.491023 -0.472997
v -0.479721 0.439554 -0.513711
v -0.513710 0.439554 -0.479723
v -0.499631 0.439554 -0.499633
v -0.513710 0.479723 -0.439554
v -0.479721 0.513711 -0.439554
v -0.499631 0.499633 -0.439554
v 0.479721 -0.513711 0.439554
v 0.513710 -0.479723 0.439554
v 0.499631 -0.499633 0.439554
v 0.471490 -0.503852 0.471491
v 0.503850 -0.471491 0.471491
v 0.471490 -0.471491 0.503852
v 0.491021 -0.491023 0.472997
v 0.486280 -0.486281 0.486281
v 0.491021 -0.472998 0.491023
v 0.472996 -0.491023 0.491023
v 0.513710 -0.439554 0.479723
v 0.479721 -0.439554 0.513711
v 0.499631 -0.439554 0.499633
v 0.439552 -0.479723 0.513711
v 0.439552 -0.513711 0.479723
v 0.439552 -0.499633 0.499633
v 0.439552 0.479723 0.513711
v 0.439552 0.513711 0.479723
v 0.439552 0.499633 0.499633
v 0.503850 0.471491 0.471491
v 0.471490 0.503852 0.471491
v 0.471490 0.471491 0.503852
v 0.491021 0.491023 0.472998
v 0.486280 0.486281 0.486281
v 0.472996 0.491023 0.491023
v 0.491021 0.472997 0.491023
v 0.479721 0.439554 0.513711
v 0.513710 0.439554 0.479723
v 0.499631 0.439554 0.499633
v 0.513710 0.479723 0.439554
v 0.479721 0.513711 0.439554
v 0.499631 0.499633 0.439554
v 0.439552 -0.513711 -0.479723
v 0.439552 -0.479723 -0.513711
v 0.439552 -0.499633 -0.499633
v 0.471490 -0.503852 -0.471491
v 0.471490 -0.471491 -0.503852
v 0.503850 -0.471491 -0.471491
v 0.472996 -0.491023 -0.491023
v 0.486280 -0.486281 -0.486281
v 0.491021 -0.472997 -0.491023
v 0.491021 -0.491023 -0.472998
v 0.479721 -0.439554 -0.513711
v 0.513710 -0.439554 -0.479723
v 0.499631 -0.439554 -0.499633
v 0.513710 -0.479723 -0.439554
v 0.479721 -0.513711 -0.439554
v 0.499631 -0.499633 -0.439554
v 0.479721 0.513711 -0.439554
v 0.513710 0.479723 -0.439554
v 0.499631 0.499633 -0.439554
v 0.471490 0.503852 -0.471491
v 0.503850 0.471491 -0.471491
v 0.471490 0.471491 -0.503852
v 0.491021 0.491023 -0.472997
v 0.486280 0.486281 -0.486281
v 0.491021 0.472998 -0.491023
v 0.472996 0.491023 -0.491023
v 0.479721 0.439554 -0.513711
v 0.513710 0.439554 -0.479723
v 0.499631 0.439554 -0.499633
v 0.439552 0.479723 -0.513711
v 0.439552 0.513711 -0.479723
v 0.439552 0.499633 -0.499633
vn -0.0000 -0.0000 1.0000
vn 1.0000 -0.0000 -0.0000
vn -0.0000 1.0000 -0.0000
vn -1.0000 -0.0000 -0.0000
vn -0.0000 -0.0000 -1.0000
vn -0.3578 -0.3578 0.8625
vn -0.0000 -0.3827 0.9239
vn -0.3827 -0.0000 0.9239
vn -0.0000 0.9239 0.3827
vn -0.8625 0.3578 0.3578
vn -0.3827 0.9239 -0.0000
vn -0.8625 -0.3578 -0.3578
vn -0.3578 -0.3578 -0.8625
vn -0.9239 -0.0000 -0.3827
vn -0.0000 0.9239 -0.3827
vn -0.0000 0.3827 -0.9239
vn 0.3827 -0.9239 -0.0000
vn 0.8625 -0.3578 0.3578
vn 0.9239 -0.3827 -0.0000
vn 0.9239 -0.0000 0.3827
vn 0.3578 0.3578 0.8625
vn 0.8625 0.3578 0.3578
vn 0.9239 0.3827 -0.0000
vn 0.3578 -0.3578 -0.8625
vn 0.8625 -0.3578 -0.3578
vn 0.3827 -0.0000 -0.9239
vn 0.8625 0.3578 -0.3578
vn 0.3578 0.3578 -0.8625
vn -0.9239 -0.3827 -0.0000
vn -0.0000 0.3827 0.9239
vn -0.9239 -0.0000 0.3827
vn -0.3827 -0.9239 -0.0000
vn -0.9239 0.3827 -0.0000
vn -0.3578 -0.8625 -0.3578
vn -0.0000 -0.9239 -0.3827
vn -0.3827 -0.0000 -0.9239
vn -0.0000 -0.3827 -0.9239
vn -0.3578 0.3578 -0.8625
vn -0.8625 0.3578 -0.3578
vn -0.3578 0.8625 -0.3578
vn 0.3578 0.8625 -0.3578
vn 0.9239 -0.0000 -0.3827
vn 0.3578 -0.8625 0.3578
vn 0.3578 -0.3578 0.8625
vn 0.3578 -0.8625 -0.3578
vn 0.3827 0.9239 -0.0000
vn 0.3578 0.8625 0.3578
vn 0.3827 -0.0000 0.9239
vn -0.3578 -0.8625 0.3578
vn -0.8625 -0.3578 0.3578
vn -0.3578 0.8625 0.3578
vn -0.3578 0.3578 0.8625
vn -0.0000 -1.0000 -0.0000
vn -0.4548 -0.7657 0.4548
vn -0.4548 -0.4548 0.7657
vn -0.7657 -0.4548 0.4548
vn -0.4548 0.4548 0.7657
vn -0.4548 0.7657 0.4548
vn -0.7657 0.4548 0.4548
vn -0.4548 -0.7657 -0.4548
vn -0.7657 -0.4548 -0.4548
vn -0.4548 -0.4548 -0.7657
vn -0.4548 0.7657 -0.4548
vn -0.4548 0.4548 -0.7657
vn -0.7657 0.4548 -0.4548
vn 0.4548 -0.7657 0.4548
vn 0.7657 -0.4548 0.4548
vn 0.4548 -0.4548 0.7657
vn 0.7657 0.4548 0.4548
vn 0.4548 0.7657 0.4548
vn 0.4548 0.4548 0.7657
vn 0.4548 -0.7657 -0.4548
vn 0.4548 -0.4548 -0.7657
vn 0.7657 -0.4548 -0.4548
vn 0.4548 0.7657 -0.4548
vn 0.7657 0.4548 -0.4548
vn 0.4548 0.4548 -0.7657
vn 0.5179 0.3535 0.7790
vn 0.7790 0.3535 0.5179
vn -0.3535 -0.5179 0.7790
vn -0.3535 -0.7790 0.5179
vn -0.3535 0.7790 0.5179
vn -0.3535 0.5179 0.7790
vn -0.0000 0.5773 0.8165
vn -0.0000 0.8165 0.5774
vn -0.7790 -0.5179 -0.3535
vn -0.5179 -0.7790 -0.3535
vn -0.3535 0.5179 -0.7790
vn -0.3535 0.7790 -0.5179
vn 0.7790 -0.5179 0.3535
vn 0.5179 -0.7790 0.3535
vn 0.3535 0.5179 0.7790
vn 0.3535 0.7790 0.5179
vn 0.7790 0.5179 0.3535
vn 0.5179 0.7790 0.3535
vn 0.3535 -0.5179 -0.7790
vn 0.3535 -0.7790 -0.5179
vn 0.7790 0.5179 -0.3535
vn 0.5179 0.7790 -0.3535
vn -0.5179 -0.3535 0.7790
vn -0.7790 -0.3535 0.5179
vn -0.7790 -0.5179 0.3535
vn -0.5179 -0.7790 0.3535
vn -0.5179 0.3535 -0.7790
vn -0.7790 0.3535 -0.5179
vn 0.8165 0.5773 -0.0000
vn 0.5774 0.8165 -0.0000
vn -0.7790 0.5179 -0.3535
vn -0.5179 0.7790 -0.3535
vn 0.5179 -0.3535 -0.7790
vn 0.7790 -0.3535 -0.5179
vn 0.7790 -0.5179 -0.3535
vn 0.5179 -0.7790 -0.3535
vn -0.5774 -0.0000 0.8165
vn -0.8165 -0.0000 0.5773
vn -0.0000 -0.5773 -0.8165
vn -0.0000 -0.8165 -0.5774
vn -0.8165 -0.5773 -0.0000
vn -0.5774 -0.8165 -0.0000
vn 0.5774 -0.0000 -0.8165
vn 0.8165 -0.0000 -0.5773
vn -0.8165 -0.0000 -0.5773
vn -0.5774 -0.0000 -0.8165
vn -0.5179 0.7790 0.3535
vn -0.7790 0.5179 0.3535
vn -0.7790 0.3535 0.5179
vn -0.5179 0.3535 0.7790
vn 0.7790 -0.3535 0.5179
vn 0.5179 -0.3535 0.7790
vn 0.3535 -0.5179 0.7790
vn 0.3535 -0.7790 0.5179
vn 0.7790 0.3535 -0.5179
vn 0.5179 0.3535 -0.7790
vn 0.3535 0.5179 -0.7790
vn 0.3535 0.7790 -0.5179
vn -0.0000 -0.8165 0.5774
vn -0.0000 -0.5774 0.8165
vn 0.8165 -0.0000 0.5773
vn 0.5774 -0.0000 0.8165
vn -0.0000 0.8165 -0.5774
vn -0.0000 0.5774 -0.8165
vn -0.5774 0.8165 -0.0000
vn -0.8165 0.5773 -0.0000
vn 0.5774 -0.8165 -0.0000
vn 0.8165 -0.5773 -0.0000
vn -0.7790 -0.3535 -0.5179
vn -0.5179 -0.3535 -0.7790
vn -0.3535 -0.5179 -0.7790
vn -0.3535 -0.7790 -0.5179
vn -0.0000 -0.9239 0.3827
vt 0.930347 0.073438
vt 0.069203 0.925629
vt 0.929849 0.933004
vt 0.929849 0.933004
vt 0.069701 0.066068
vt 0.069203 0.925629
vt 0.929849 0.933004
vt 0.930347 0.073438
vt 0.069701 0.066068
vt 0.069203 0.925629
vt 0.930347 0.073438
vt 0.069701 0.066068
vt 0.069701 0.066068
vt 0.069203 0.925629
vt 0.069701 0.066068
vt 0.930347 0.073438
vt 0.930347 0.073438
vt 0.929849 0.933004
vt 0.069203 0.925629
vt 0.069203 0.925629
vt 0.069701 0.066068
vt 0.929849 0.933004
vt 0.930347 0.073438
vt 0.929849 0.933004
vt 0.930347 0.030214
vt 0.026291 0.925629
vt 0.930347 0.004521
vt 0.000772 0.925629
vt 0.973289 0.030214
vt 0.026291 0.968879
vt 0.973102 0.975941
vt 0.000772 0.968879
vt 0.973289 0.004521
vt 0.998825 0.004521
vt 0.000772 1.001474
vt 0.998812 1.001474
vt 0.026291 1.001474
vt 0.973102 1.001474
vt 0.998812 0.975941
vt 0.998825 0.030214
vt 0.069203 0.968879
vt 0.929849 0.975941
vt 0.069203 1.001474
vt 0.929849 1.001474
vt 0.973102 0.933004
vt 0.973289 0.073438
vt 0.998812 0.933004
vt 0.998825 0.073438
vt 0.973102 0.933004
vt 0.069701 0.023157
vt 0.998812 0.933004
vt 0.069701 -0.002362
vt 0.973102 0.975941
vt 0.026477 0.023157
vt 0.026291 0.968879
vt 0.026477 -0.002362
vt 0.998812 0.975941
vt 0.998812 1.001474
vt 0.000785 -0.002362
vt 0.000772 1.001474
vt 0.000785 0.023157
vt 0.000772 0.968879
vt 0.026291 1.001474
vt 0.973102 1.001474
vt 0.026477 0.066068
vt 0.026291 0.925629
vt 0.000785 0.066068
vt 0.000772 0.925629
vt 0.929849 0.975941
vt 0.069203 0.968879
vt 0.069203 1.001474
vt 0.929849 1.001474
vt 0.973102 0.933004
vt 0.973289 0.073438
vt 0.998825 0.073438
vt 0.998812 0.933004
vt 0.973102 0.975941
vt 0.973289 0.030214
vt 0.026477 0.023157
vt 0.998825 0.030214
vt 0.998812 0.975941
vt 0.998812 1.001474
vt 0.998825 0.004521
vt 0.000785 -0.002362
vt 0.973289 0.004521
vt 0.026477 -0.002362
vt 0.000785 0.023157
vt 0.973102 1.001474
vt 0.069701 0.023157
vt 0.930347 0.030214
vt 0.930347 0.004521
vt 0.069701 -0.002362
vt 0.929849 0.975941
vt 0.026477 0.066068
vt 0.000785 0.066068
vt 0.929849 1.001474
vt 0.069203 0.968879
vt 0.973289 0.073438
vt 0.069203 1.001474
vt 0.998825 0.073438
vt 0.026291 0.968879
vt 0.973289 0.030214
vt 0.026477 0.023157
vt 0.998825 0.030214
vt 0.026291 1.001474
vt 0.000772 1.001474
vt 0.998825 0.004521
vt 0.000785 -0.002362
vt 0.973289 0.004521
vt 0.026477 -0.002362
vt 0.000785 0.023157
vt 0.000772 0.968879
vt 0.930347 0.030214
vt 0.069701 0.023157
vt 0.069701 -0.002362
vt 0.930347 0.004521
vt 0.026477 0.066068
vt 0.026291 0.925629
vt 0.000772 0.925629
vt 0.000785 0.066068
vt 0.026477 0.066068
vt 0.026291 0.925629
vt 0.000785 0.066068
vt 0.000772 0.925629
vt 0.026477 0.023157
vt 0.026291 0.968879
vt 0.026477 0.023157
vt 0.000772 0.968879
vt 0.000785 0.023157
vt 0.000772 1.001474
vt 0.000785 -0.002362
vt 0.026291 1.001474
vt 0.026477 -0.002362
vt 0.000785 0.023157
vt 0.026477 -0.002362
vt 0.069203 0.968879
vt 0.069701 0.023157
vt 0.069203 1.001474
vt 0.069701 -0.002362
vt 0.026477 0.066068
vt 0.069701 0.023157
vt 0.069701 -0.002362
vt 0.000785 0.066068
vt 0.973289 0.073438
vt 0.930347 0.030214
vt 0.998825 0.073438
vt 0.930347 0.004521
vt 0.973102 0.975941
vt 0.973289 0.030214
vt 0.973289 0.030214
vt 0.998812 0.975941
vt 0.998825 0.030214
vt 0.998812 1.001474
vt 0.998825 0.004521
vt 0.998825 0.030214
vt 0.973289 0.004521
vt 0.973289 0.004521
vt 0.973102 1.001474
vt 0.930347 0.030214
vt 0.929849 0.975941
vt 0.929849 1.001474
vt 0.930347 0.004521
vt 0.973102 0.933004
vt 0.973289 0.073438
vt 0.998812 0.933004
vt 0.998825 0.073438
vt 0.069203 0.968879
vt 0.026291 0.925629
vt 0.000772 0.925629
vt 0.069203 1.001474
vt 0.026291 0.968879
vt 0.026291 0.968879
vt 0.026477 0.023157
vt 0.000772 0.968879
vt 0.026291 1.001474
vt 0.000772 1.001474
vt 0.000785 -0.002362
vt 0.026291 1.001474
vt 0.026477 -0.002362
vt 0.000785 0.023157
vt 0.000772 0.968879
vt 0.069203 0.968879
vt 0.069701 0.023157
vt 0.069203 1.001474
vt 0.069701 -0.002362
vt 0.026477 0.066068
vt 0.026291 0.925629
vt 0.000772 0.925629
vt 0.000785 0.066068
vt 0.973102 0.933004
vt 0.973289 0.073438
vt 0.998825 0.073438
vt 0.998812 0.933004
vt 0.973102 0.975941
vt 0.973289 0.030214
vt 0.973102 0.975941
vt 0.998825 0.030214
vt 0.998812 0.975941
vt 0.998825 0.004521
vt 0.998812 1.001474
vt 0.973289 0.004521
vt 0.973102 1.001474
vt 0.998812 0.975941
vt 0.973102 1.001474
vt 0.929849 0.975941
vt 0.930347 0.030214
vt 0.930347 0.004521
vt 0.929849 1.001474
vt 0.973102 0.933004
vt 0.929849 0.975941
vt 0.929849 1.001474
vt 0.998812 0.933004
s 0
f 15/15/1 17/17/1 4/4/1 2/2/1
f 21/21/2 23/23/2 18/18/2 14/14/2
f 22/22/3 10/10/3 5/5/3 16/16/3
f 3/3/4 6/6/4 12/12/4 8/8/4
f 9/9/5 11/11/5 24/24/5 20/20/5
f 2/2/6 35/41/6 29/30/6 26/26/6
f 26/26/7 102/140/7 15/15/7 2/2/7
f 2/2/8 4/4/8 54/69/8 35/41/8
f 16/16/9 5/5/9 42/50/9 106/145/9
f 6/6/10 55/70/10 46/55/10 52/66/10
f 5/5/11 10/10/11 87/118/11 51/65/11
f 8/8/12 68/90/12 61/78/12 58/74/12
f 9/9/13 71/94/13 62/79/13 67/89/13
f 84/114/14 68/90/14 8/8/14 12/12/14
f 10/10/15 22/22/15 151/210/15 73/97/15
f 74/98/16 150/209/16 24/24/16 11/11/16
f 13/13/17 19/19/17 135/187/17 89/121/17
f 14/14/18 99/136/18 93/126/18 90/122/18
f 90/122/19 134/186/19 21/21/19 14/14/19
f 116/160/20 99/136/20 14/14/20 18/18/20
f 17/17/21 115/159/21 110/150/21 105/144/21
f 18/18/22 118/163/22 108/148/22 116/160/22
f 138/191/23 118/163/23 18/18/23 23/23/23
f 20/20/24 131/182/24 125/172/24 122/168/24
f 21/21/25 134/186/25 126/173/25 132/183/25
f 147/205/26 131/182/26 20/20/26 24/24/26
f 23/23/27 148/206/27 141/195/27 138/191/27
f 24/24/28 150/209/28 142/196/28 147/205/28
f 58/74/29 38/45/29 3/3/29 8/8/29
f 105/144/30 41/49/30 4/4/30 17/17/30
f 36/42/31 55/70/31 6/6/31 3/3/31
f 7/7/32 1/1/32 39/46/32 57/73/32
f 52/66/33 86/117/33 12/12/33 6/6/33
f 7/7/34 57/73/34 60/77/34 70/93/34
f 19/19/35 7/7/35 70/93/35 121/167/35
f 11/11/36 9/9/36 67/89/36 83/113/36
f 122/168/37 71/94/37 9/9/37 20/20/37
f 11/11/38 83/113/38 77/102/38 74/98/38
f 12/12/39 86/117/39 78/103/39 84/114/39
f 10/10/40 73/97/40 76/101/40 87/118/40
f 22/22/41 137/190/41 140/194/41 151/210/41
f 23/23/42 21/21/42 132/183/42 148/206/42
f 13/13/43 89/121/43 92/125/43 103/141/43
f 15/15/44 102/140/44 94/127/44 100/137/44
f 19/19/45 121/167/45 124/171/45 135/187/45
f 22/22/46 16/16/46 119/164/46 137/190/46
f 16/16/47 106/145/47 109/149/47 119/164/47
f 17/17/48 15/15/48 100/137/48 115/159/48
f 1/1/49 25/25/49 28/29/49 39/46/49
f 3/3/50 38/45/50 30/31/50 36/42/50
f 5/5/51 51/65/51 45/54/51 42/50/51
f 4/4/52 41/49/52 44/53/52 54/69/52
f 7/7/53 19/19/53 13/13/53 1/1/53
f 28/29/54 31/33/54 32/34/54 34/40/54
f 29/30/55 33/37/55 32/35/55 31/32/55
f 30/31/56 34/39/56 32/36/56 33/38/56
f 44/53/57 47/57/57 48/58/57 50/64/57
f 45/54/58 49/61/58 48/59/58 47/56/58
f 46/55/59 50/63/59 48/60/59 49/62/59
f 60/77/60 63/81/60 64/82/60 66/88/60
f 61/78/61 65/85/61 64/83/61 63/80/61
f 62/79/62 66/87/62 64/84/62 65/86/62
f 76/101/63 79/105/63 80/106/63 82/112/63
f 77/102/64 81/109/64 80/107/64 79/104/64
f 78/103/65 82/111/65 80/108/65 81/110/65
f 92/125/66 95/129/66 96/131/66 98/135/66
f 93/126/67 97/132/67 96/130/67 95/128/67
f 94/127/68 98/134/68 96/131/68 97/133/68
f 108/148/69 111/151/69 112/153/69 114/158/69
f 109/149/70 113/156/70 112/154/70 111/152/70
f 110/150/71 114/157/71 112/154/71 113/155/71
f 124/171/72 127/175/72 128/176/72 130/181/72
f 125/172/73 129/178/73 128/176/73 127/174/73
f 126/173/74 130/180/74 128/177/74 129/179/74
f 140/194/75 143/198/75 144/200/75 146/204/75
f 141/195/76 145/201/76 144/199/76 143/197/76
f 142/196/77 146/203/77 144/200/77 145/202/77
f 110/150/78 115/159/78 117/162/78 114/157/78
f 114/158/79 117/161/79 116/160/79 108/148/79
f 26/26/80 29/30/80 31/32/80 27/28/80
f 27/27/81 31/33/81 28/29/81 25/25/81
f 42/50/82 45/54/82 47/56/82 43/52/82
f 43/51/83 47/57/83 44/53/83 41/49/83
f 41/49/84 105/144/84 107/146/84 43/51/84
f 43/52/85 107/147/85 106/145/85 42/50/85
f 58/74/86 61/78/86 63/80/86 59/75/86
f 59/76/87 63/81/87 60/77/87 57/73/87
f 74/98/88 77/102/88 79/104/88 75/100/88
f 75/99/89 79/105/89 76/101/89 73/97/89
f 90/122/90 93/126/90 95/128/90 91/124/90
f 91/123/91 95/129/91 92/125/91 89/121/91
f 105/144/92 110/150/92 113/155/92 107/146/92
f 107/147/93 113/156/93 109/149/93 106/145/93
f 108/148/94 118/163/94 120/165/94 111/151/94
f 111/152/95 120/166/95 119/164/95 109/149/95
f 122/168/96 125/172/96 127/174/96 123/169/96
f 123/170/97 127/175/97 124/171/97 121/167/97
f 138/191/98 141/195/98 143/197/98 139/192/98
f 139/193/99 143/198/99 140/194/99 137/190/99
f 29/30/100 35/41/100 37/43/100 33/37/100
f 33/38/101 37/44/101 36/42/101 30/31/101
f 30/31/102 38/45/102 40/47/102 34/39/102
f 34/40/103 40/48/103 39/46/103 28/29/103
f 77/102/104 83/113/104 85/116/104 81/109/104
f 81/110/105 85/115/105 84/114/105 78/103/105
f 118/163/106 138/191/106 139/192/106 120/165/106
f 120/166/107 139/193/107 137/190/107 119/164/107
f 78/103/108 86/117/108 88/120/108 82/111/108
f 82/112/109 88/119/109 87/118/109 76/101/109
f 125/172/110 131/182/110 133/184/110 129/178/110
f 129/179/111 133/185/111 132/183/111 126/173/111
f 126/173/112 134/186/112 136/189/112 130/180/112
f 130/181/113 136/188/113 135/187/113 124/171/113
f 35/41/114 54/69/114 56/72/114 37/43/114
f 37/44/115 56/71/115 55/70/115 36/42/115
f 71/94/116 122/168/116 123/169/116 72/95/116
f 72/96/117 123/170/117 121/167/117 70/93/117
f 38/45/118 58/74/118 59/75/118 40/47/118
f 40/48/119 59/76/119 57/73/119 39/46/119
f 131/182/120 147/205/120 149/208/120 133/184/120
f 133/185/121 149/207/121 148/206/121 132/183/121
f 68/90/122 84/114/122 85/115/122 69/91/122
f 69/92/123 85/116/123 83/113/123 67/89/123
f 45/54/124 51/65/124 53/67/124 49/61/124
f 49/62/125 53/68/125 52/66/125 46/55/125
f 46/55/126 55/70/126 56/71/126 50/63/126
f 50/64/127 56/72/127 54/69/127 44/53/127
f 93/126/128 99/136/128 101/138/128 97/132/128
f 97/133/129 101/139/129 100/137/129 94/127/129
f 94/127/130 102/140/130 104/143/130 98/134/130
f 98/135/131 104/142/131 103/141/131 92/125/131
f 141/195/132 148/206/132 149/207/132 145/201/132
f 145/202/133 149/208/133 147/205/133 142/196/133
f 142/196/134 150/209/134 152/212/134 146/203/134
f 146/204/135 152/211/135 151/210/135 140/194/135
f 25/25/136 103/141/136 104/142/136 27/27/136
f 27/28/137 104/143/137 102/140/137 26/26/137
f 99/136/138 116/160/138 117/161/138 101/138/138
f 101/139/139 117/162/139 115/159/139 100/137/139
f 73/97/140 151/210/140 152/211/140 75/99/140
f 75/100/141 152/212/141 150/209/141 74/98/141
f 51/65/142 87/118/142 88/119/142 53/67/142
f 53/68/143 88/120/143 86/117/143 52/66/143
f 89/121/144 135/187/144 136/188/144 91/123/144
f 91/124/145 136/189/145 134/186/145 90/122/145
f 61/78/146 68/90/146 69/91/146 65/85/146
f 65/86/147 69/92/147 67/89/147 62/79/147
f 62/79/148 71/94/148 72/95/148 66/87/148
f 66/88/149 72/96/149 70/93/149 60/77/149
f 1/1/150 13/13/150 103/141/150 25/25/150
